<svg xmlns="http://www.w3.org/2000/svg" data-name="Layer 1" viewBox="0 0 400 512"><path fill="#8b5e44" d="M157.19,368.36s3.58,97.49,3.91,101.88,16,17.42,46.38,7l11.88-58.59s1.63,3.42,4.56,4.23l13.35,55.18s19.85,8.53,33.69,3.13,17.25-11.76,17.25-11.76l-6.35-103.51Z" class="color8b5e44 svgShape"/><path fill="#80553e" d="M217.41 416.53a44.11 44.11 0 00-4.2-3.14 7.61 7.61 0 00-4.38-1.61 1 1 0 00-.55.15 1.26 1.26 0 00-.36.55l-.75 1.86c-7.57 18.59-4.81 39.34-11.42 58.3-.94 2.69-1.94 5.36-2.82 8.07a74.26 74.26 0 0014.55-3.46l11.87-58.55A8.2 8.2 0 00217.41 416.53zM178.13 382.43c10.27 5.23 21.9 7.46 33.42 7.53s23-1.93 34.14-4.83a66.69 66.69 0 005.8 17.45 80.29 80.29 0 0120.43-15.19 38.9 38.9 0 0111-4l-1.07-17.51-124.67 2.44 1 25.88a74.14 74.14 0 0019.21 2.44A66.63 66.63 0 00178.13 382.43zM249.49 458.85a3.86 3.86 0 011.51-1.11 19 19 0 003.86-2.74 2 2 0 00.61-.81c.23-.75-.4-1.47-1-2-2.76-2.47-5.71-4.74-8.35-7.34-6.31-6.19-10.79-14.15-17.6-19.79a8.83 8.83 0 00-4.06-2.17 3.49 3.49 0 00-.56 0l13.34 55.16a71.24 71.24 0 0017.93 4.61 175.62 175.62 0 01-5.81-21A3.58 3.58 0 01249.49 458.85z" class="color80553e svgShape"/><path fill="#6c4733" d="M176.23 477.46a.54.54 0 01-.54-.52c-.44-10.26-1.15-25.81-1.29-26.57-.37-.68-1-26.5-1-26.71.13-1.65-.9-23.35-1.47-34.6a.55.55 0 01.51-.57h0a.56.56 0 01.55.51c.06 1.34 1.62 32.62 1.46 34.74s.81 25.52 1 26.37c0 0 .17.3 1.32 26.78a.55.55 0 01-.52.57h0zM276.4 476.36a.54.54 0 01-.53-.45c-.16-1-3.92-23.77-3.92-27.92 0-3.38-2.86-21.09-3.94-27.76-.24-1.49-.4-2.5-.45-2.8-.24-1.69-3.52-29.47-3.66-30.65a.53.53 0 01.47-.6h0a.54.54 0 01.6.47c0 .29 3.42 29 3.66 30.63.05.29.21 1.3.45 2.78 1.18 7.32 3.95 24.47 3.95 27.93 0 4.06 3.87 27.51 3.91 27.74a.55.55 0 01-.45.63h-.09zM257.52 454a.56.56 0 01-.31-.09 141.24 141.24 0 01-32.41-31.54.54.54 0 11.87-.65A140.3 140.3 0 00257.83 453a.53.53 0 01.15.75.55.55 0 01-.46.24zM261.14 464.53a.58.58 0 01-.26-.06A97.6 97.6 0 01237.08 446a.55.55 0 010-.76.54.54 0 01.77 0h0a97 97 0 0023.54 18.23.54.54 0 01.22.73.53.53 0 01-.49.28zM215.73 410.81a.56.56 0 01-.47-.26c-1.88-3.12-4.82-32.54-4.95-33.79a.55.55 0 01.49-.6h0a.54.54 0 01.59.49h0c.8 8.06 3.11 28.87 4.58 32.88a22.46 22.46 0 004.16-2.56c.22-1 .38-17.39.42-28.19a.55.55 0 01.55-.54h0a.54.54 0 01.54.54h0c-.05 10.39-.18 27.94-.54 28.68s-3.39 2.39-5.14 3.29A.5.5 0 01215.73 410.81z" class="color6c4733 svgShape"/><path fill="#fffffc" d="M174,376.66s19.21,5.78,45.33,4.32,37.35-5.37,37.35-5.37l.88-126.87L244.42,145.15l-31.91,1.71S178.43,340.37,174,376.66Z" class="colorfffffc svgShape"/><path fill="#d67c52" d="M212.51,126.6v22s4.33,5.37,15.19,3.79,14.24-5.74,14.24-5.74l-1.06-21.48Z" class="colord67c52 svgShape"/><path fill="#57473a" d="M291.74 352.17l-.28 4.73s-.69 1 3.5.88 26.65-.24 27.1-1.95l-.86-4.64S299.64 351.23 291.74 352.17zM88.36 190.07l.14-4.15s5.09-.51 17.32 2.07 12.88 3.46 12.88 3.46l.57 3.42-1.06 3.31S94.34 202.89 88.36 190.07z" class="color57473a svgShape"/><path fill="#a15d3c" d="M226,143.44c3-.7,10.88-8.25,15.16-12.55l-.29-5.76-28.37,1.47v14.46C216,142.16,222.88,144.16,226,143.44Z" class="colora15d3c svgShape"/><path fill="#eaeded" d="M192.76 331.48c-.62-8.14-.56-16.31-.49-24.47l.34-45.45C184.26 310.44 176 360 174 376.67A133.88 133.88 0 00202 381c-.84-3.18-1.59-6.4-2.32-9.6C196.65 358.19 193.78 344.94 192.76 331.48zM257.51 248.74L245.29 152c-5.48 5-14.27 11.36-15.94 13.8s-1.61 5.67-1.35 8.64c.51 5.8 1.48 11.56 2.34 17.32a474.25 474.25 0 015 54.92c1.45 44.72-3.44 89.36-8.83 133.82 21-1.7 30.12-4.87 30.12-4.87z" class="coloreaeded svgShape"/><path fill="#d67c52" d="M297.64,351.11s2.44,29.74,3.18,34,.77,17.29.65,18-1,2.2-1,3.09a13.45,13.45,0,0,0,.21,1.79s-4.24,13.72-4.93,15.55-2.28,5.94-2.56,6.51a14.5,14.5,0,0,0,.28,5.41c.41.77,1.75,8.18,1.43,9.32s.32,2.92,1.62,2.68,4.26-4.15,4.32-6.14v-.21c-.16-1.91.66,6.88.66,6.88s1.13,2.4,3,2.2,3-3.05,3-3.05,2.6,1.09,3.74.73,1.67-3.54,2.32-3.91,3.95-.49,4.4-1.59a4.66,4.66,0,0,0,.28-2.19,3.49,3.49,0,0,0,2.24-2.32c.45-1.79-.69-9.93-1-12s-2.68-7.82-2.76-8.92-.28-7.2.06-7.65a8.44,8.44,0,0,0,.61-3.18,18.93,18.93,0,0,0-.8-2.1l1.59-54.45S305.09,347.25,297.64,351.11Z" class="colord67c52 svgShape"/><path fill="#be6d48" d="M300.82,440.6a.55.55,0,0,1-.55-.51c-.12-1.82-1.56-8.76-1.57-8.83a.55.55,0,0,1,.42-.65.57.57,0,0,1,.64.43c.06.28,1.47,7.08,1.6,9a.55.55,0,0,1-.51.58h0Z" class="colorbe6d48 svgShape"/><path fill="#a15d3c" d="M309.9,363.17a51.18,51.18,0,0,1,7.91-3.68l.28-9.88s-13.06-2.36-20.5,1.5c0,0,1.13,13.81,2.09,24a18.56,18.56,0,0,1,.89-2.28A23.24,23.24,0,0,1,309.9,363.17Z" class="colora15d3c svgShape"/><path fill="#d67c52" d="M116,198s13.67-49.92,14.89-52.85,4.76-14,7.08-14.77,9.16-6.31,10.25-8.65,9.93-12.23,13.43-13.37-2.07-3.62-4.51-3.33-7.89,4.76-9,4.88a7.12,7.12,0,0,1-1.46.08s2.54-8.84,3-13.79,7.63-25.15,7.32-26.86a2,2,0,0,0-2.17-1.84,2,2,0,0,0-.94.32c-1.28.73-9,21.24-9.95,24.41a.58.58,0,0,1-.75-.33.54.54,0,0,1,0-.22c-.12-.79,2.07-27.14,1.59-28.21a2.27,2.27,0,0,0-3-1.15,2.22,2.22,0,0,0-.42.25c-1.28,1-4,28.31-4,28.5s-1.4.49-1.65-.43-.42-24.53-1.64-25.57-3.79-.43-4.22,2.38.07,23.5-.24,24.17-2.5.43-2.62-.37-2.63-19.53-4.28-20.44-3,.24-2.93,2.13.8,17.21.92,18.31.06,4.15.06,4.15-1.22,4-2,7.57-1.83,16.78-1.59,18.24,1.83,4.09,1.89,5.31-27,59.94-28.93,65.18C90.18,191.71,96.54,203.55,116,198Z" class="colord67c52 svgShape"/><path fill="#be6d48" d="M129.68 120.7a.54.54 0 01-.41-.89c.28-.33 7-8.14 13.59-9.14a.54.54 0 01.62.44v0a.53.53 0 01-.45.61c-6.23.94-12.86 8.69-12.93 8.77A.52.52 0 01129.68 120.7zM125.29 106.14a.54.54 0 01-.55-.53.53.53 0 01.53-.55h0c12.15-.32 18.61-6.62 18.67-6.68a.54.54 0 01.77.77h0c-.27.27-6.81 6.66-19.41 7zM127.57 113.38a.54.54 0 01-.4-.91h0A43.82 43.82 0 01141 103a.55.55 0 01.71.3.54.54 0 01-.3.7A43.61 43.61 0 00128 113.21.54.54 0 01127.57 113.38zM127.57 120a.54.54 0 01-.52-.38 31 31 0 00-4.4-8.06.54.54 0 01.88-.63 31.39 31.39 0 014.55 8.38.54.54 0 01-.35.67h0A.39.39 0 01127.57 120zM123.5 132.36h-.09a.55.55 0 01-.46-.61h0a17.29 17.29 0 011.45-3 .54.54 0 11.95.53h0a19.13 19.13 0 00-1.32 2.64A.57.57 0 01123.5 132.36zM125.58 133.12a.53.53 0 01-.49-.32c-.4-1 .63-3.14 1.1-4a.54.54 0 011 .49h0a7.77 7.77 0 00-1.06 3.12.54.54 0 01-.32.71A.43.43 0 01125.58 133.12z" class="colorbe6d48 svgShape"/><path fill="#a15d3c" d="M111,179.62c-5.43,2.87-11.5,4.06-17.63,4.82-1.65,3.69-2.8,6.34-3.15,7.27,0,0,6.36,11.84,25.83,6.29,0,0,4.38-16,8.41-30.43A41.9,41.9,0,0,1,111,179.62Z" class="colora15d3c svgShape"/><path fill="#fd9490" d="M212.51 142.58v6s3.41 6.47 8 8.67-4.19 14.16-6.05 24.41-26.15 132.53-29.08 149.13-2.93 56.64-2.93 56.64-28.48 2.92-46.06-20.35c0 0 11.23-49 13.84-62.66s12.86-66.08 9.27-84.63c0 0-59.4 24.25-64 24.57s-16 1-17.9-14.81 10.9-43.62 10.9-43.62 5 11.07 15.63 11 13.67.65 15.13-2l-.57-3.42s18.31-8.55 23.44-14.81 7.89-4.72 9-6 6-9 9.77-10.82 37.19-11.32 41.5-12.54 2-3.82 5.29-4.68S212.51 142.58 212.51 142.58zM241.58 139.37l.36 7.24s.29 5.62-2.81 7.57-5.53 2-5.69 4.07 1.79 6.83 1.79 6.83 3.46 33.9 6.39 46.47 11.22 43.7 10.86 52.24-4.64 110.72-1.34 126.58c0 0 1.46-5.86 12.69-5.49s16 .77 16.36 2.64 13.42-1.42 14.77-2.64 0-27.1 0-27.1-4.15-.12-3.42-1.1 8.42-3.53 16.36-3.17a61.7 61.7 0 0114.15 2.32s1.24-49.43 0-64.45c-1.48-18.07-8.05-101.8-9-107.66s-.36-15.38-2.44-18.56S253 143.68 248.69 143c0 0-.36-2.28-3.66-3A20 20 0 00241.58 139.37z" class="colorfd9490 svgShape"/><path fill="#e18480" d="M162.42 204.66c.85-6 .55-12.2 1-18.29a79.29 79.29 0 00.5-10.55 15.87 15.87 0 00-3.62-9.72.88.88 0 00-.45-.3c-.45-.06-.65.55-.67 1q-.42 8.1-.83 16.22a9.72 9.72 0 01-.79 4.05c-.38.74-.95 1.37-1.36 2.1a11.92 11.92 0 00-.87 2.31c-2.3 7.52-5.83 15-12 19.88-4.83 3.8-10.85 5.67-16.74 7.44a9.57 9.57 0 01-3.67.61c-1.25-.12-3.13-.95-3-2.18s.39-2.61.58-3.91a18.12 18.12 0 00.28-3.45 4 4 0 00-.68-2.23 2 2 0 00-2.07-.79 2.74 2.74 0 00-1.3 1.15c-1.72 2.45-2.55 5.54-3.62 8.32l-3.49 9.07a48.91 48.91 0 01-2.9 6.54 36.29 36.29 0 01-6.29 7.84 50.21 50.21 0 01-5.29 4.58h.26c4.4-.32 59.76-22.86 63.72-24.48q.8-3.37 1.57-6.75C161.37 210.31 162 207.51 162.42 204.66zM291.34 323c-.36-7.48.85-26.36 1.65-33.85.3-2.87-.44-13.34-1.49-25.92 0 0-5.33 50.5-7.44 57.82s-7.65-18.72-7.65-18.72 3.09 34.87 3.7 43.3 2.69 38.69 2.69 38.69l-.16 3.78c4-.26 11.25-2.27 12.24-3.17 1.34-1.22 0-27.1 0-27.1s-4.15-.12-3.42-1.1l.07-.06c.19-.18.73-.89.66-2.91C292.12 351.29 291.71 330.44 291.34 323zM289 189.66c-.81 7.32 0 61.68 0 61.68s1.46-44.48 5.2-51.86c1.74-3.42 3.69-6.73 5.72-10 1.72-2.73 3.45-5 4-8.3a51.67 51.67 0 01-5.22 5.45 6.3 6.3 0 01-3.84 1.84 1.57 1.57 0 01-.9-.22 1.66 1.66 0 01-.54-.88 12.93 12.93 0 01-.17-6.48c.39-2.14 1-4.25 1.26-6.42a2.41 2.41 0 00-.19-1.54c-1-1.58-1.51 1-1.73 1.7-.45 1.39-.87 2.77-1.27 4.17A66.81 66.81 0 00289 189.66z" class="colore18480 svgShape"/><path fill="#d37d79" d="M213.66 161a.6.6 0 01-.31-.1c-5.41-3.73-8.08-13.72-8.19-14.14a.56.56 0 01.39-.67.54.54 0 01.66.39h0c0 .1 2.69 10 7.76 13.53a.53.53 0 01.15.75.55.55 0 01-.46.24zM241.17 161.39a.54.54 0 11-.08-1.08h0c3.5-.5 7.66-11.1 7.84-12.39a17.56 17.56 0 00-.63-4.2.54.54 0 01.39-.66h0a.55.55 0 01.66.39 18 18 0 01.66 4.61c-.15 1.12-4.28 12.68-8.76 13.32zM101.44 237.89a.54.54 0 01-.55-.53.56.56 0 01.4-.54c2.13-.62 4.48-5 6.2-8.22a37.08 37.08 0 012.11-3.67c1.55-2.18 6.87-19.07 9.47-27.7a.53.53 0 01.66-.36h0a.55.55 0 01.37.68h0c-.3 1-7.58 25.14-9.62 28a38.86 38.86 0 00-2 3.55c-2 3.75-4.28 8-6.85 8.76zM115.87 231.25a.5.5 0 01-.33-.12.54.54 0 01-.1-.76h0a17.77 17.77 0 003-8.09c.14-.86.26-1.71.38-2.58a40.29 40.29 0 011.21-6.34.54.54 0 011 .31h0a39.28 39.28 0 00-1.18 6.17c-.12.87-.24 1.74-.37 2.61-.43 2.6-1.18 5.94-3.23 8.58A.55.55 0 01115.87 231.25z" class="colord37d79 svgShape"/><path fill="#d37d79" d="M110.38 231a.54.54 0 01-.54-.54.55.55 0 01.21-.43 22.31 22.31 0 007.07-9.61.55.55 0 01.7-.31.54.54 0 01.31.7 23.34 23.34 0 01-7.41 10.07A.54.54 0 01110.38 231zM159.79 217h-.09a.55.55 0 01-.45-.63h0c.05-.28 4.77-28.54 4.1-36.52-.69-8.13-.92-10.32-2.36-11.93a.55.55 0 01.82-.72h0c1.73 1.94 1.95 4.62 2.62 12.56.68 8.12-3.91 35.62-4.1 36.79A.55.55 0 01159.79 217zM159.79 363.7a.45.45 0 01-.16 0 .54.54 0 01-.36-.67h0c2.25-7.48 41-149.81 41.37-151.24a.54.54 0 111 .28h0c-.39 1.44-39.11 143.78-41.37 151.27A.55.55 0 01159.79 363.7zM152.87 370a.53.53 0 01-.53-.43c-2.68-12.86 8.52-104.43 9-108.32a.55.55 0 01.6-.48.54.54 0 01.47.6h0c-.12.95-11.65 95.28-9 108a.54.54 0 01-.42.64h-.12zM282.75 386a.53.53 0 01-.54-.51c0-.35-2.33-35.58-2.7-40.78s-5.79-61.66-5.84-62.23a.54.54 0 01.49-.59.55.55 0 01.59.49h0c.05.57 5.47 57.05 5.84 62.26s2.67 40.43 2.7 40.78a.55.55 0 01-.51.58h0zM254.06 260.55h0a.53.53 0 01-.51-.56h0c0-.24 1.21-24.45 1.1-29.74s-2.91-35.91-2.93-36.22a.54.54 0 01.49-.59h0a.52.52 0 01.58.44.11.11 0 010 0c.11 1.27 2.81 31 2.93 36.29s-1.09 29.58-1.1 29.83A.53.53 0 01254.06 260.55zM292.2 354.26a.55.55 0 01-.55-.54h0c0-.12 0-11.21-.39-16.72-.44-6.09-.69-36.67.61-41.2.87-3.08.57-14-.91-32.58a16.51 16.51 0 00-.84-4c-.62-2-1.33-4.31-1.53-10.75-.17-5.15 0-12.83.08-20.26.14-8.4.29-17.08 0-22.2a96.15 96.15 0 014.23-33.7.52.52 0 01.67-.33h0a.55.55 0 01.33.7h0a95.1 95.1 0 00-4.16 33.27c.27 5.16.13 13.86 0 22.28-.12 7.41-.25 15.08-.09 20.2.2 6.3.89 8.52 1.49 10.47a17.33 17.33 0 01.88 4.28c1.51 18.93 1.8 29.71.87 32.95-1.2 4.2-1 34.38-.57 40.83.4 5.55.4 16.68.4 16.79a.55.55 0 01-.54.55zM304.21 297.79h0a.54.54 0 01-.53-.55h0a173.76 173.76 0 012-20.62c.23-1.72.47-3.44.69-5.16a344.33 344.33 0 002.44-58.66.54.54 0 01.52-.56h0a.53.53 0 01.57.51h0a344.4 344.4 0 01-2.46 58.84c-.22 1.72-.45 3.45-.69 5.17a178 178 0 00-2 20.49A.54.54 0 01304.21 297.79z" class="colord37d79 svgShape"/><path fill="#361909" d="M184.59,97.91s-7.74-10.68-8.22-22.19S178,59.79,178,59.79s-3.65,11-3.77,13.85c0,0,.09-32.89,21-41.18,19.18-7.6,27.06-.24,27.06-.24s5.73-3.07,14.35-1.47,25,12.37,23.8,39.21c0,0-2.06,14.7-4.49,17.65Z" class="color361909 svgShape"/><path fill="#d67c52" d="M257.47,92.56l-.7-4.58a6.94,6.94,0,0,0-7.9-5.83h0l-1.36-9c-10.59-.85-15.31-12.66-15.31-12.66-.06,4.82,5,13.51,5,13.51a28.16,28.16,0,0,1-21.27-10.11c.78,4.46,7.08,13.27,7.08,13.27C212.55,76,207.07,58.68,207.07,58.68,205.53,62.49,209,79.09,209,79.09c-2.56,1.19-6.79,0-6.79,0-1.13-1-3-17.38-3-17.38-1.67,2.56-1.07,17.86-1.07,17.86-1.84.78-7.38,1.06-10.34,1.16l1.58,10.44a6.94,6.94,0,0,0-5.83,7.9h0l.7,4.58c.35,2.29,4.2,7.46,8.37,7.82,3.94,15.44,25.38,26.88,34.16,25.55s25.87-18.61,25.06-34.53C255.67,100.93,257.82,94.85,257.47,92.56Z" class="colord67c52 svgShape"/><path fill="#be6d48" d="M254.83 90.62a4.63 4.63 0 00-5.27-3.89h0l1.67 11A6.92 6.92 0 00254.83 90.62zM186.14 101a6.92 6.92 0 005.55 5.76l-1.67-11a4.62 4.62 0 00-3.88 5.27z" class="colorbe6d48 svgShape"/><path fill="#a15d3c" d="M221.09,110.63c-1.56.24-2.84,0-3.48-1.2-.77-1.45-2.08-16.66-2.33-19.7a.56.56,0,0,1,.51-.62h0a.57.57,0,0,1,.62.53c.58,6.93,1.69,18.28,2.2,19.26s1.91.9,5.33-.21a.59.59,0,0,1,.74.37.58.58,0,0,1-.37.73A20.33,20.33,0,0,1,221.09,110.63Z" class="colora15d3c svgShape"/><path fill="#361909" d="M237 90.4c.51 3.37-.27 6.28-1.74 6.5s-3.07-2.32-3.59-5.69.28-6.28 1.74-6.5S236.5 87 237 90.4zM201.2 95.86c.51 3.37 2.12 5.92 3.59 5.69s2.25-3.13 1.73-6.5-2.11-5.91-3.58-5.69S200.69 92.49 201.2 95.86z" class="color361909 svgShape"/><path fill="#ce784f" d="M232.31 118.52a13.16 13.16 0 007.55 10c6-6.2 11.34-14.94 11.86-23.57a13.19 13.19 0 00-19.41 13.55zM214.27 121.25A13.19 13.19 0 00193 112.9c2.7 8.18 10.15 15.12 17.75 19.45A13.16 13.16 0 00214.27 121.25z" class="colorce784f svgShape"/><path fill="#361909" d="M223.55 77.48s9.19-6 14.53-5.53 6.78 1.87 6.78 1.87-6.22.67-7 1.05S226 82 224 80.58a2 2 0 01-.75-2.72A1.69 1.69 0 01223.55 77.48zM211.21 80.14s-10.55-3-15.52-1-5.93 3.8-5.93 3.8 6.15-1.2 7-1 13.5 3.31 15 1.33a2 2 0 00-.09-2.81A1.82 1.82 0 00211.21 80.14zM221.66 121.73a19.46 19.46 0 01-6.6-1.46.54.54 0 01-.28-.71.55.55 0 01.71-.29s5.37 2.26 8.53 1a16.85 16.85 0 006.65-5.5.55.55 0 01.72-.27.53.53 0 01.27.71h0a17.8 17.8 0 01-7.23 6.06A7.32 7.32 0 01221.66 121.73z" class="color361909 svgShape"/></svg>